<svg fill="none" height="478" stroke-linecap="square" stroke-miterlimit="10" viewBox="0 0 754 478" width="754" xmlns="http://www.w3.org/2000/svg" xmlns:xlink="http://www.w3.org/1999/xlink"><clipPath id="a"><path d="m111.9 71.333336h618.2v294.766664h-618.2z"/></clipPath><path d="m0 0h754v478h-754z" fill="#fff"/><path d="m111.5 366.5h619" stroke="#333" stroke-linecap="butt"/><path d="m111.5 267.5h619" stroke="#ccc" stroke-linecap="butt"/><path d="m111.5 169.5h619" stroke="#ccc" stroke-linecap="butt"/><path d="m111.5 71.5h619" stroke="#ccc" stroke-linecap="butt"/><path clip-path="url(#a)" d="m189 366h-36v-2c0-1.10458.89543-2 2-2h32c1.10457 0 2 .89542 2 2z"/><path clip-path="url(#a)" d="m189 366h-36v-2c0-1.10458.89543-2 2-2h32c1.10457 0 2 .89542 2 2z" fill="#4285f4"/><path clip-path="url(#a)" d="m304 366h-36v-14c0-1.10458.89542-2 2-2h32c1.10458 0 2 .89542 2 2z"/><path clip-path="url(#a)" d="m304 366h-36v-14c0-1.10458.89542-2 2-2h32c1.10458 0 2 .89542 2 2z" fill="#4285f4"/><path clip-path="url(#a)" d="m420 366h-36v-46c0-1.10458.89542-2 2-2h32c1.10458 0 2 .89542 2 2z"/><path clip-path="url(#a)" d="m420 366h-36v-46c0-1.10458.89542-2 2-2h32c1.10458 0 2 .89542 2 2z" fill="#4285f4"/><path clip-path="url(#a)" d="m536 366h-36v-124c0-1.10457.89542-2 2-2h32c1.10455 0 2 .89543 2 2z"/><path clip-path="url(#a)" d="m536 366h-36v-124c0-1.10457.89542-2 2-2h32c1.10455 0 2 .89543 2 2z" fill="#4285f4"/><path clip-path="url(#a)" d="m651 366h-36v-279c0-1.10457.89545-2 2-2h32c1.10455 0 2 .89543 2 2z"/><path clip-path="url(#a)" d="m651 366h-36v-279c0-1.10457.89545-2 2-2h32c1.10455 0 2 .89543 2 2z" fill="#4285f4"/><path clip-path="url(#a)" d="m227 366h-36v-1.5c0-.82843.67157-1.5 1.5-1.5h33c.82843 0 1.5.67157 1.5 1.5z"/><path clip-path="url(#a)" d="m227 366h-36v-1.5c0-.82843.67157-1.5 1.5-1.5h33c.82843 0 1.5.67157 1.5 1.5z" fill="#db4437"/><path clip-path="url(#a)" d="m342 366h-36v-11c0-1.10458.89542-2 2-2h32c1.10458 0 2 .89542 2 2z"/><path clip-path="url(#a)" d="m342 366h-36v-11c0-1.10458.89542-2 2-2h32c1.10458 0 2 .89542 2 2z" fill="#db4437"/><path clip-path="url(#a)" d="m458 366h-36v-41c0-1.10458.89542-2 2-2h32c1.10458 0 2 .89542 2 2z"/><path clip-path="url(#a)" d="m458 366h-36v-41c0-1.10458.89542-2 2-2h32c1.10458 0 2 .89542 2 2z" fill="#db4437"/><path clip-path="url(#a)" d="m574 366h-36v-112c0-1.10457.89545-2 2-2h32c1.10455 0 2 .89543 2 2z"/><path clip-path="url(#a)" d="m574 366h-36v-112c0-1.10457.89545-2 2-2h32c1.10455 0 2 .89543 2 2z" fill="#db4437"/><path clip-path="url(#a)" d="m689 366h-36v-244c0-1.10457.89545-2 2-2h32c1.10455 0 2 .89543 2 2z"/><path clip-path="url(#a)" d="m689 366h-36v-244c0-1.10457.89545-2 2-2h32c1.10455 0 2 .89543 2 2z" fill="#db4437"/><path d="m374.03125 443.5375v5.5625h-1.875v-14.21874h5.23437q2.34376 0 3.65626 1.1875 1.32812 1.1875 1.32812 3.15624 0 2.07813-1.29688 3.20313-1.29687 1.10937-3.70312 1.10937zm0-1.53124h3.35937q1.51563 0 2.3125-.70313.79688-.71875.79688-2.0625 0-1.26563-.79688-2.01563-.79687-.76562-2.20312-.79687h-3.46875zm15.21875 7.29687q-2.14062 0-3.5-1.40625-1.34375-1.42188-1.34375-3.78125v-.34375q0-1.5625.59375-2.79688.60938-1.23437 1.6875-1.9375 1.07812-.70312 2.34375-.70312 2.0625 0 3.20313 1.35938 1.14062 1.35937 1.14062 3.89062v.75h-7.15625q.03125 1.5625.90625 2.53125.875.95313 2.21875.95313.96875 0 1.625-.39063.67187-.39063 1.17187-1.03125l1.09376.85938q-1.32813 2.04687-3.98438 2.04687zm-.21875-9.48437q-1.09375 0-1.84375.79687-.73438.79687-.90625 2.23437h5.28125v-.14062q-.07812-1.375-.75-2.125-.65625-.76562-1.78125-.76562zm11.9375.32812q-.40625-.0625-.875-.0625-1.78125 0-2.42187 1.51562v7.5h-1.79688v-10.5625h1.75l.03125 1.21876q.89063-1.42188 2.51563-1.42188.53124 0 .79687.14062zm6.14063 7.67188q.96874 0 1.6875-.57813.71874-.59375.79687-1.46875h1.71875q-.0625.90625-.64062 1.73438-.5625.8125-1.53126 1.3125-.95312.48437-2.03124.48437-2.15626 0-3.4375-1.4375-1.26563-1.45313-1.26563-3.95313v-.29687q0-1.54687.5625-2.75.5625-1.20313 1.625-1.85937 1.0625-.67188 2.5-.67188 1.78125 0 2.95313 1.0625 1.1875 1.0625 1.26562 2.76562h-1.71875q-.07813-1.01562-.78125-1.67187-.6875-.67187-1.71875-.67187-1.375 0-2.14063 1-.75.98437-.75 2.85937v.34375q0 1.82812.75 2.8125.75.98438 2.15626.98438zm10.14062 1.48437q-2.14062 0-3.5-1.40625-1.34375-1.42188-1.34375-3.78125v-.34375q0-1.5625.59375-2.79688.60938-1.23437 1.6875-1.9375 1.07812-.70312 2.34375-.70312 2.0625 0 3.20313 1.35938 1.14062 1.35937 1.14062 3.89062v.75h-7.15625q.03125 1.5625.90625 2.53125.875.95313 2.21875.95313.96875 0 1.625-.39063.67187-.39063 1.17187-1.03125l1.09376.85938q-1.32813 2.04687-3.98438 2.04687zm-.21875-9.48437q-1.09375 0-1.84375.79687-.73438.79687-.90625 2.23437h5.28125v-.14062q-.07812-1.375-.75-2.125-.65625-.76562-1.78125-.76562zm8.54687-1.28126.0625 1.32813q1.20313-1.53125 3.15626-1.53125 3.35937 0 3.375 3.78125v6.98437h-1.79688v-7q-.01562-1.14062-.53125-1.6875-.5-.54687-1.59375-.54687-.875 0-1.54688.46875-.65624.46875-1.03124 1.23438v7.53124h-1.79688v-10.5625zm11.73438-2.5625v2.5625h1.98438v1.39063h-1.98438v6.54687q0 .64063.26562.96876.26563.3125.90626.3125.3125 0 .85937-.125v1.46874q-.71875.20313-1.39063.20313-1.20312 0-1.82812-.73437-.60938-.73438-.60938-2.09376v-6.54687h-1.92187v-1.39063h1.92187v-2.5625zm6.51562 13.125h-1.79687v-10.5625h1.79687zm-1.95312-13.375q0-.4375.26562-.73437.28126-.3125.79688-.3125.53125 0 .79688.3125.28124.29687.28124.73437 0 .4375-.28124.73438-.26563.29688-.79688.29688-.51562 0-.79688-.29688-.26562-.29688-.26562-.73438zm6.95312 13.375h-1.79687v-15h1.79687zm7.42188.20313q-2.14062 0-3.5-1.40625-1.34375-1.42188-1.34375-3.78125v-.34375q0-1.5625.59375-2.79688.60938-1.23437 1.6875-1.9375 1.07812-.70312 2.34375-.70312 2.0625 0 3.20313 1.35938 1.14062 1.35937 1.14062 3.89062v.75h-7.15625q.03125 1.5625.90625 2.53125.875.95313 2.21875.95313.96875 0 1.625-.39063.67187-.39063 1.17187-1.03125l1.09376.85938q-1.32813 2.04687-3.98438 2.04687zm-.21875-9.48437q-1.09375 0-1.84375.79687-.73438.79687-.90625 2.23437h5.28125v-.14062q-.07812-1.375-.75-2.125-.65625-.76562-1.78125-.76562zm12.98437 6.48437q0-.73437-.54687-1.14063-.54687-.40624-1.92187-.70312-1.375-.29688-2.1875-.70312-.79688-.40626-1.1875-.96876-.375-.57812-.375-1.35937 0-1.29687 1.09374-2.1875 1.09376-.90625 2.8125-.90625 1.79688 0 2.90626.9375 1.125.92188 1.125 2.35938h-1.82813q0-.73438-.625-1.26563-.625-.54687-1.57813-.54687-1 0-1.5625.4375-.54687.42187-.54687 1.125 0 .64062.51563.98437.51562.32813 1.875.64063 1.35937.29687 2.1875.71874.84374.40626 1.25 1 .40624.59376.40624 1.4375 0 1.42188-1.14062 2.28126-1.125.85937-2.9375.85937-1.26562 0-2.25-.45313-.96875-.45312-1.53125-1.25-.54687-.8125-.54687-1.75h1.8125q.04687.90626.71874 1.4375.6875.53126 1.79688.53126 1.03125 0 1.64062-.40626.625-.42187.625-1.10937z" fill="#424242"/><path d="m36.29063 294.20105 1.796875 1.73437h4.8125v1.875h-14.21875v-1.875h7.03125l-7.03125-6.3125v-2.26562l6.28125 5.59375 7.9375-6.03125v2.25zm6.609375-9.39063h-14.21875v-4.64062q0-2.3125.953125-3.48438.953125-1.17187 2.828125-1.17187 1 0 1.765625.57812.765625.5625 1.1875 1.53125.328125-1.14062 1.234375-1.8125.890625-.67187 2.140625-.67187 1.921875 0 3.015625 1.25 1.09375 1.23437 1.09375 3.5zm-6.65625-1.875h5.125v-3.09375q0-1.3125-.671875-2.0625-.6875-.75-1.875-.75-2.578125 0-2.578125 2.78125zm-1.5 0v-2.82812q0-1.23438-.609375-1.96875-.625-.73438-1.671875-.73438-1.171875 0-1.703125.6875-.53125.67188-.53125 2.07813v2.76562zm-4.96875-22.28125h2.5625v-1.98437h1.390625v1.98437h6.546875q.640625 0 .96875-.26562.3125-.26563.3125-.90625 0-.3125-.125-.85938h1.46875q.203125.71875.203125 1.39063 0 1.20312-.734375 1.82812-.734375.60938-2.09375.60938h-6.546875v1.92187h-1.390625v-1.92187h-2.5625zm4.171875-9.65625q-.0625.40625-.0625.875 0 1.78125 1.515625 2.42188h7.5v1.79687h-10.5625v-1.75l1.21875-.03125q-1.421875-.89062-1.421875-2.51562 0-.53125.140625-.79688zm8.953125-8.42187q-.3125.15625-1.109375.25 1.3125 1.26562 1.3125 3.01562 0 1.5625-.890625 2.5625-.890625 1-2.25 1-1.640625 0-2.546875-1.25-.921875-1.26562-.921875-3.53125v-1.76562h-.828125q-.953125 0-1.515625.57812-.5625.5625-.5625 1.65625 0 .96875.5 1.625.484375.65625 1.171875.65625v1.8125q-.78125 0-1.515625-.5625-.75-.5625-1.171875-1.51562-.4375-.96875-.4375-2.125 0-1.82813.921875-2.85938.90625-1.03125 2.515625-1.07812h4.859375q1.453125 0 2.3125-.35938h.15625zm-1.375 3q0-.85938-.4375-1.60938-.4375-.76562-1.140625-1.10937h-2.171875v1.42187q0 3.3125 1.9375 3.3125.859375 0 1.34375-.5625.46875-.5625.46875-1.45312zm-9.1875-9.1875 1.328125-.0625q-1.53125-1.20313-1.53125-3.15625 0-3.35938 3.78125-3.375h6.984375v1.79687h-7q-1.140625.01563-1.6875.53125-.546875.5-.546875 1.59375 0 .875.46875 1.54688.46875.65625 1.234375 1.03125h7.53125v1.79687h-10.5625zm7.765625-15.4375q-.734375 0-1.140625.54687-.40625.54688-.703125 1.92188-.296875 1.375-.703125 2.1875-.40625.79687-.96875 1.1875-.578125.375-1.359375.375-1.296875 0-2.1875-1.09375-.90625-1.09375-.90625-2.8125 0-1.79688.9375-2.90625.921875-1.125 2.359375-1.125v1.82812q-.734375 0-1.265625.625-.546875.625-.546875 1.57813 0 1 .4375 1.5625.421875.54687 1.125.54687.640625 0 .984375-.51562.328125-.51563.640625-1.875.296875-1.35938.71875-2.1875.40625-.84375 1-1.25.59375-.40625 1.4375-.40625 1.421875 0 2.28125 1.14062.859375 1.125.859375 2.9375 0 1.26563-.453125 2.25-.453125.96875-1.25 1.53125-.8125.54688-1.75.54688v-1.8125q.90625-.04688 1.4375-.71875.53125-.6875.53125-1.79688 0-1.03125-.40625-1.64062-.421875-.625-1.109375-.625zm2.796875-4.73438h-9.171875v1.65625h-1.390625v-1.65625h-1.09375q-1.6875 0-2.609375-.90625-.9375-.92187-.9375-2.57812 0-.625.15625-1.23438l1.46875.09375q-.078125.45313-.078125.96875 0 .89063.515625 1.375.5.46875 1.453125.46875h1.125v-2.25h1.390625v2.25h9.171875zm.203125-10.5q0 2.14063-1.40625 3.5-1.421875 1.34375-3.78125 1.34375h-.34375q-1.5625 0-2.796875-.59375-1.234375-.60937-1.9375-1.6875-.703125-1.07812-.703125-2.34375 0-2.0625 1.359375-3.20312 1.359375-1.14063 3.890625-1.14063h.75v7.15625q1.5625-.03125 2.53125-.90625.953125-.875.953125-2.21875 0-.96875-.390625-1.625-.390625-.67187-1.03125-1.17187l.859375-1.09375q2.046875 1.32812 2.046875 3.98437zm-9.484375.21875q0 1.09375.796875 1.84375.796875.73438 2.234375.90625v-5.28125h-.140625q-1.375.07813-2.125.75-.765625.65625-.765625 1.78125zm.328125-11.9375q-.0625.40625-.0625.875 0 1.78125 1.515625 2.42188h7.5v1.79687h-10.5625v-1.75l1.21875-.03125q-1.421875-.89062-1.421875-2.51562 0-.53125.140625-.79688zm0-7q-.0625.40625-.0625.875 0 1.78125 1.515625 2.42188h7.5v1.79687h-10.5625v-1.75l1.21875-.03125q-1.421875-.89062-1.421875-2.51562 0-.53125.140625-.79688zm9.15625-6.28125q0 2.14063-1.40625 3.5-1.421875 1.34375-3.78125 1.34375h-.34375q-1.5625 0-2.796875-.59375-1.234375-.60937-1.9375-1.6875-.703125-1.07812-.703125-2.34375 0-2.0625 1.359375-3.20312 1.359375-1.14063 3.890625-1.14063h.75v7.15625q1.5625-.03125 2.53125-.90625.953125-.875.953125-2.21875 0-.96875-.390625-1.625-.390625-.67187-1.03125-1.17187l.859375-1.09375q2.046875 1.32812 2.046875 3.98437zm-9.484375.21875q0 1.09375.796875 1.84375.796875.73438 2.234375.90625v-5.28125h-.140625q-1.375.07813-2.125.75-.765625.65625-.765625 1.78125zm3.90625-6.39062q-2.421875 0-3.90625-1.15625-1.484375-1.15625-1.484375-3.01563 0-1.85937 1.265625-2.9375h-5.5v-1.8125h15v1.65625l-1.140625.09375q1.34375 1.07813 1.34375 3.01563 0 1.82812-1.5 3-1.515625 1.15625-3.9375 1.15625zm.203125-1.8125q1.796875 0 2.8125-.73438 1.015625-.75 1.015625-2.0625 0-1.71875-1.53125-2.5h-4.859375q-1.5.79688-1.5 2.48438 0 1.32812 1.03125 2.07812 1.03125.73438 3.03125.73438z" fill="#424242"/><g fill="#757575"><path d="m104.9625 366.95938q0 1.90625-.65625 2.84375-.64062.92187-2.03125.92187-1.35937 0-2.01562-.90624-.65625-.90626-.6875-2.71876v-1.4375q0-1.89062.64062-2.79687.65625-.92187 2.04688-.92187 1.375 0 2.03125.89062.65625.875.67187 2.71875zm-1.09375-1.48438q0-1.375-.39062-2-.375-.64062-1.21875-.64062-.82813 0-1.21875.64062-.375.625-.375 1.92188v1.73438q0 1.375.39062 2.04687.40625.65625 1.21875.65625.79688 0 1.1875-.625.39063-.625.40625-1.95312z"/><path d="m84.19688 272.34445h-5.59375v-.78125l2.95312-3.28125q.65625-.75.90625-1.20312.25-.46875.25-.96875 0-.67188-.40625-1.09375-.39062-.4375-1.07812-.4375-.79688 0-1.25.46875-.45313.45312-.45313 1.28125h-1.07812q0-1.1875.75-1.90625.76562-.73438 2.03125-.73438 1.20312 0 1.89062.625.6875.625.6875 1.67188 0 1.25-1.60937 3l-2.28125 2.46875h4.28125zm6.76562-3.64062q0 1.90625-.65625 2.84375-.64062.92187-2.03125.92187-1.35937 0-2.01562-.90625-.65625-.90625-.6875-2.71875v-1.4375q0-1.89062.64062-2.79687.65625-.92188 2.04688-.92188 1.375 0 2.03125.89063.65625.875.67187 2.71875zm-1.09375-1.48438q0-1.375-.39062-2-.375-.64062-1.21875-.64062-.82813 0-1.21875.64062-.375.625-.375 1.92188v1.73437q0 1.375.39062 2.04688.40625.65625 1.21875.65625.79688 0 1.1875-.625.39063-.625.40625-1.95313zm8.09375 1.48438q0 1.90625-.65625 2.84375-.64062.92187-2.03125.92187-1.35937 0-2.01562-.90625-.65625-.90625-.6875-2.71875v-1.4375q0-1.89062.64062-2.79687.65625-.92188 2.04688-.92188 1.375 0 2.03125.89063.65625.875.67187 2.71875zm-1.09375-1.48438q0-1.375-.39062-2-.375-.64062-1.21875-.64062-.82813 0-1.21875.64062-.375.625-.375 1.92188v1.73437q0 1.375.39062 2.04688.40625.65625 1.21875.65625.79688 0 1.1875-.625.39063-.625.40625-1.95313zm8.09375 1.48438q0 1.90625-.65625 2.84375-.64062.92187-2.03125.92187-1.35937 0-2.01562-.90625-.65625-.90625-.6875-2.71875v-1.4375q0-1.89062.64062-2.79687.65625-.92188 2.04688-.92188 1.375 0 2.03125.89063.65625.875.67187 2.71875zm-1.09375-1.48438q0-1.375-.39062-2-.375-.64062-1.21875-.64062-.82813 0-1.21875.64062-.375.625-.375 1.92188v1.73437q0 1.375.39062 2.04688.40625.65625 1.21875.65625.79688 0 1.1875-.625.39063-.625.40625-1.95313z"/><path d="m83.18125 171.2295h1.1875v.875h-1.1875v1.98438h-1.07812v-1.98438h-3.89063v-.64062l3.8125-5.90625h1.15625zm-3.73437 0h2.65625v-4.1875l-.14063.23438zm11.51562-.78124q0 1.90624-.65625 2.84374-.64062.92188-2.03125.92188-1.35937 0-2.01562-.90625-.65625-.90625-.6875-2.71875v-1.4375q0-1.89062.64062-2.79688.65625-.92187 2.04688-.92187 1.375 0 2.03125.89063.65625.875.67187 2.71874zm-1.09375-1.48438q0-1.375-.39062-2-.375-.64062-1.21875-.64062-.82813 0-1.21875.64062-.375.625-.375 1.92188v1.73437q0 1.375.39062 2.04687.40625.65626 1.21875.65626.79688 0 1.1875-.625.39063-.625.40625-1.95313zm8.09375 1.48438q0 1.90624-.65625 2.84374-.64062.92188-2.03125.92188-1.35937 0-2.01562-.90625-.65625-.90625-.6875-2.71875v-1.4375q0-1.89062.64062-2.79688.65625-.92187 2.04688-.92187 1.375 0 2.03125.89063.65625.875.67187 2.71874zm-1.09375-1.48438q0-1.375-.39062-2-.375-.64062-1.21875-.64062-.82813 0-1.21875.64062-.375.625-.375 1.92188v1.73437q0 1.375.39062 2.04687.40625.65626 1.21875.65626.79688 0 1.1875-.625.39063-.625.40625-1.95313zm8.09375 1.48438q0 1.90624-.65625 2.84374-.64062.92188-2.03125.92188-1.35937 0-2.01562-.90625-.65625-.90625-.6875-2.71875v-1.4375q0-1.89062.64062-2.79688.65625-.92187 2.04688-.92187 1.375 0 2.03125.89063.65625.875.67187 2.71874zm-1.09375-1.48438q0-1.375-.39062-2-.375-.64062-1.21875-.64062-.82813 0-1.21875.64062-.375.625-.375 1.92188v1.73437q0 1.375.39062 2.04687.40625.65626 1.21875.65626.79688 0 1.1875-.625.39063-.625.40625-1.95313z"/><path d="m82.86875 67.302086v.90625h-.20312q-1.26563.03125-2.01563.765624-.75.71875-.875 2.03125.6875-.765624 1.84375-.765624 1.10938 0 1.78125.78125.67188.78125.67188 2.03125 0 1.3125-.71875 2.109374-.71875.796876-1.9375.796876-1.21875 0-1.98438-.9375-.75-.953126-.75-2.4375v-.40625q0-2.359376 1-3.609376 1-1.25 2.98438-1.265624zm-1.42187 3.84375q-.5625 0-1.03125.328124-.46875.328126-.65625.84375v.390626q0 1.0625.46875 1.703124.48437.640626 1.1875.640626.73437 0 1.15625-.53125.42187-.546876.42187-1.421876 0-.875-.42187-1.40625-.42188-.546874-1.125-.546874zm9.51562 1.046874q0 1.90625-.65625 2.84375-.64062.921876-2.03125.921876-1.35937 0-2.01562-.90625-.65625-.90625-.6875-2.71875v-1.4375q0-1.890626.64062-2.796876.65625-.921874 2.04688-.921874 1.375 0 2.03125.890624.65625.875.67187 2.71875zm-1.09375-1.484374q0-1.375-.39062-2-.375-.640626-1.21875-.640626-.82813 0-1.21875.640626-.375.625-.375 1.921874v1.734376q0 1.375.39062 2.046874.40625.65625 1.21875.65625.79688 0 1.1875-.625.39063-.625.40625-1.953124zm8.09375 1.484374q0 1.90625-.65625 2.84375-.64062.921876-2.03125.921876-1.35937 0-2.01562-.90625-.65625-.90625-.6875-2.71875v-1.4375q0-1.890626.64062-2.796876.65625-.921874 2.04688-.921874 1.375 0 2.03125.890624.65625.875.67187 2.71875zm-1.09375-1.484374q0-1.375-.39062-2-.375-.640626-1.21875-.640626-.82813 0-1.21875.640626-.375.625-.375 1.921874v1.734376q0 1.375.39062 2.046874.40625.65625 1.21875.65625.79688 0 1.1875-.625.39063-.625.40625-1.953124zm8.09375 1.484374q0 1.90625-.65625 2.84375-.64062.921876-2.03125.921876-1.35937 0-2.01562-.90625-.65625-.90625-.6875-2.71875v-1.4375q0-1.890626.64062-2.796876.65625-.921874 2.04688-.921874 1.375 0 2.03125.890624.65625.875.67187 2.71875zm-1.09375-1.484374q0-1.375-.39062-2-.375-.640626-1.21875-.640626-.82813 0-1.21875.640626-.375.625-.375 1.921874v1.734376q0 1.375.39062 2.046874.40625.65625 1.21875.65625.79688 0 1.1875-.625.39063-.625.40625-1.953124z"/><path d="m183.69408 389.92813q0 2.42187-1.10938 3.90625-1.09375 1.46875-2.98437 1.46875-1.92188 0-3.03125-1.23437v5.09374h-1.79688v-14.625h1.64063l.09375 1.17188q1.09375-1.375 3.0625-1.375 1.90625 0 3.01562 1.4375 1.10938 1.4375 1.10938 4zm-1.8125-.20313q0-1.78124-.76563-2.8125-.75-1.04687-2.07812-1.04687-1.64063 0-2.46875 1.45313v5.0625q.8125 1.4375 2.48437 1.4375 1.29688 0 2.0625-1.03126.76563-1.03124.76563-3.0625zm9.64062 5.375h-1.82812v-12.04687l-3.64063 1.34375v-1.64062l5.1875-1.9375h.28125zm13.96875-6.0625q0 3.17188-1.07812 4.71876-1.07813 1.54687-3.39063 1.54687-2.28125 0-3.375-1.51563-1.09375-1.51562-1.125-4.51562v-2.40625q0-3.14063 1.07813-4.65625 1.09375-1.53125 3.40625-1.53125 2.29687 0 3.375 1.48437 1.07812 1.46876 1.10937 4.53126zm-1.79687-2.46874q0-2.29688-.65625-3.34376-.64063-1.0625-2.03125-1.0625-1.39063 0-2.03125 1.04688-.625 1.04688-.64063 3.21875v2.89063q0 2.29687.65625 3.40624.67188 1.09376 2.03125 1.09376 1.34375 0 1.98438-1.03126.65625-1.03124.6875-3.26562z"/><path d="m299.24548 389.92813q0 2.42187-1.10938 3.90625-1.09374 1.46875-2.98437 1.46875-1.92187 0-3.03125-1.23437v5.09374h-1.79688v-14.625h1.64063l.09375 1.17188q1.09375-1.375 3.0625-1.375 1.90625 0 3.01562 1.4375 1.10938 1.4375 1.10938 4zm-1.8125-.20313q0-1.78124-.76562-2.8125-.75-1.04687-2.07813-1.04687-1.64063 0-2.46875 1.45313v5.0625q.8125 1.4375 2.48438 1.4375 1.29687 0 2.0625-1.03126.76562-1.03124.76562-3.0625zm13.01562 5.375h-9.3125v-1.29687l4.92188-5.46875q1.09375-1.25 1.5-2.01562.42188-.78126.42188-1.60938 0-1.10938-.67188-1.82812-.67188-.71876-1.79688-.71876-1.35937 0-2.10937.78126-.73437.76562-.73437 2.125h-1.8125q0-1.96876 1.26562-3.17188 1.26562-1.21875 3.39062-1.21875 1.98438 0 3.125 1.04687 1.15626 1.04688 1.15626 2.76563 0 2.10937-2.67188 5l-3.8125 4.14063h7.14062zm2.51563-7.125.71875-7.09374h7.28125v1.67187h-5.75l-.42187 3.875q1.04687-.60937 2.375-.60937 1.9375 0 3.07812 1.28124 1.14062 1.28126 1.14062 3.46876 0 2.20312-1.1875 3.46874-1.1875 1.26563-3.3125 1.26563-1.89062 0-3.07812-1.04687-1.1875-1.04688-1.35938-2.89063h1.71876q.15624 1.21875.85937 1.84375.70313.60938 1.85937.60938 1.26563 0 1.98438-.85938.71875-.85938.71875-2.375 0-1.42188-.78125-2.28125-.78125-.875-2.0625-.875-1.1875 0-1.85938.51563l-.48437.39062z"/><path d="m414.79688 389.92813q0 2.42187-1.10938 3.90625-1.09375 1.46875-2.98438 1.46875-1.92187 0-3.03124-1.23437v5.09374h-1.79688v-14.625h1.64062l.09376 1.17188q1.09374-1.375 3.0625-1.375 1.90624 0 3.01562 1.4375 1.10938 1.4375 1.10938 4zm-1.8125-.20313q0-1.78124-.76563-2.8125-.75-1.04687-2.07813-1.04687-1.64062 0-2.46874 1.45313v5.0625q.8125 1.4375 2.48437 1.4375 1.29687 0 2.0625-1.03126.76563-1.03124.76563-3.0625zm4.53124-1.75.71876-7.09374h7.28124v1.67187h-5.75l-.42187 3.875q1.04687-.60937 2.375-.60937 1.9375 0 3.07813 1.28124 1.14062 1.28126 1.14062 3.46876 0 2.20312-1.1875 3.46874-1.1875 1.26563-3.3125 1.26563-1.89062 0-3.07812-1.04687-1.1875-1.04688-1.35938-2.89063h1.71875q.15625 1.21875.85937 1.84375.70313.60938 1.85938.60938 1.26562 0 1.98438-.85938.71874-.85938.71874-2.375 0-1.42188-.78124-2.28125-.78126-.875-2.0625-.875-1.1875 0-1.85938.51563l-.48438.39062zm19.07813 1.0625q0 3.17188-1.07813 4.71876-1.07812 1.54687-3.39062 1.54687-2.28125 0-3.375-1.51563-1.09375-1.51562-1.125-4.51562v-2.40625q0-3.14063 1.07812-4.65625 1.09376-1.53125 3.40626-1.53125 2.29687 0 3.375 1.48437 1.07812 1.46876 1.10937 4.53126zm-1.79687-2.46874q0-2.29688-.65626-3.34376-.64062-1.0625-2.03124-1.0625-1.39063 0-2.03126 1.04688-.625 1.04688-.64062 3.21875v2.89063q0 2.29687.65625 3.40624.67187 1.09376 2.03125 1.09376 1.34375 0 1.98438-1.03126.65624-1.03124.6875-3.26562z"/><path d="m530.34827 389.92813q0 2.42187-1.10937 3.90625-1.09376 1.46875-2.9844 1.46875-1.92186 0-3.03123-1.23437v5.09374h-1.79687v-14.625h1.6406l.09377 1.17188q1.09373-1.375 3.0625-1.375 1.90623 0 3.01563 1.4375 1.10937 1.4375 1.10937 4zm-1.8125-.20313q0-1.78124-.76563-2.8125-.75-1.04687-2.07814-1.04687-1.6406 0-2.46873 1.45313v5.0625q.8125 1.4375 2.48437 1.4375 1.29686 0 2.0625-1.03126.76563-1.03124.76563-3.0625zm12.875-7.82812-5.89063 13.20312h-1.89064l5.875-12.73437h-7.7031v-1.48437h9.60937zm2.65623 6.07812.71877-7.09374h7.28123v1.67187h-5.75l-.42186 3.875q1.04686-.60937 2.375-.60937 1.9375 0 3.07813 1.28124 1.14063 1.28126 1.14063 3.46876 0 2.20312-1.1875 3.46874-1.1875 1.26563-3.3125 1.26563-1.89063 0-3.07813-1.04687-1.1875-1.04688-1.35937-2.89063h1.71874q.15626 1.21875.85936 1.84375.70314.60938 1.8594.60938 1.2656 0 1.98437-.85938.71873-.85938.71873-2.375 0-1.42188-.78123-2.28125-.78127-.875-2.0625-.875-1.1875 0-1.85937.51563l-.4844.39062z"/><path d="m645.89966 389.92813q0 2.42187-1.10936 3.90625-1.09377 1.46875-2.9844 1.46875-1.92187 0-3.03124-1.23437v5.09374h-1.79686v-14.625h1.6406l.09376 1.17188q1.09374-1.375 3.0625-1.375 1.90624 0 3.01564 1.4375 1.10936 1.4375 1.10936 4zm-1.8125-.20313q0-1.78124-.76563-2.8125-.75-1.04687-2.07813-1.04687-1.6406 0-2.46874 1.45313v5.0625q.8125 1.4375 2.48437 1.4375 1.29687 0 2.0625-1.03126.76563-1.03124.76563-3.0625zm10.625-.875q-.5625.67188-1.35936 1.09376-.78127.40624-1.71877.40624-1.23437 0-2.15623-.60937-.90627-.60937-1.40627-1.70313-.48437-1.10937-.48437-2.4375 0-1.42187.53124-2.5625.5469-1.14062 1.53126-1.75 1-.60937 2.32814-.60937 2.10936 0 3.3281 1.57813 1.21876 1.57812 1.21876 4.3125v.51562q0 4.15625-1.64063 6.0625-1.64063 1.90625-4.95313 1.96875h-.34374v-1.53125h.375q2.23437-.03125 3.4375-1.15625 1.20314-1.14063 1.3125-3.57813zm-2.78126 0q.90626 0 1.6719-.54687.7656-.5625 1.10936-1.39063v-.71874q0-1.78126-.76563-2.89063-.76563-1.10937-1.95313-1.10937-1.1875 0-1.92187.92187-.71873.90625-.71873 2.39063 0 1.45312.7031 2.40624.70313.9375 1.875.9375zm15.76563.1875q0 3.17188-1.07813 4.71876-1.0781 1.54687-3.3906 1.54687-2.28127 0-3.375-1.51563-1.09377-1.51562-1.125-4.51562v-2.40625q0-3.14063 1.0781-4.65625 1.09376-1.53125 3.40626-1.53125 2.29687 0 3.375 1.48437 1.07814 1.46876 1.10937 4.53126zm-1.79687-2.46874q0-2.29688-.65626-3.34376-.6406-1.0625-2.03124-1.0625-1.39063 0-2.03126 1.04688-.625 1.04688-.6406 3.21875v2.89063q0 2.29687.65623 3.40624.67187 1.09376 2.03127 1.09376 1.34373 0 1.98436-1.03126.65624-1.03124.6875-3.26562z"/></g><path d="m283 30.9c0-.552285.44772-1 1-1h10c.55228 0 1 .447715 1 1v10c0 .552286-.44772 1-1 1h-10c-.55228 0-1-.447714-1-1z" fill="#4285f4"/><path d="m303.92188 37.525q0-2.421873 1.15624-3.90625 1.15626-1.484373 3.01563-1.484373 1.85937 0 2.9375 1.265623v-5.499998h1.8125v14.999998h-1.65625l-.09375-1.140623q-1.07813 1.34375-3.01563 1.34375-1.82812 0-3-1.5-1.15624-1.515627-1.15624-3.9375zm1.8125.203127q0 1.796873.73437 2.8125.75 1.015623 2.0625 1.015623 1.71875 0 2.5-1.53125v-4.859373q-.79687-1.5-2.48437-1.5-1.32813 0-2.07813 1.03125-.73437 1.03125-.73437 3.03125zm14.01562 5.375q-2.14062 0-3.5-1.40625-1.34375-1.421877-1.34375-3.78125v-.34375q0-1.5625.59375-2.796877.60938-1.234373 1.6875-1.9375 1.07812-.703123 2.34375-.703123 2.0625 0 3.20313 1.359373 1.14062 1.359377 1.14062 3.890627v.75h-7.15625q.03125 1.5625.90625 2.53125.875.953123 2.21875.953123.96875 0 1.625-.390623.67187-.390627 1.17187-1.03125l1.09376.859373q-1.32813 2.046877-3.98438 2.046877zm-.21875-9.484377q-1.09375 0-1.84375.796877-.73438.796873-.90625 2.234373h5.28125v-.140623q-.07812-1.375-.75-2.125-.65625-.765627-1.78125-.765627zm12.98437 6.484377q0-.734377-.54687-1.140627-.54687-.40625-1.92187-.703123-1.375-.296877-2.1875-.703127-.79688-.40625-1.1875-.96875-.375-.578123-.375-1.359373 0-1.296877 1.09374-2.1875 1.09376-.90625 2.8125-.90625 1.79688 0 2.90626.9375 1.125.921873 1.125 2.359373h-1.82813q0-.734373-.625-1.265623-.625-.546877-1.57813-.546877-1 0-1.5625.4375-.54687.421877-.54687 1.125 0 .640627.51563.984377.51562.328123 1.875.640623 1.35937.296877 2.1875.71875.84374.40625 1.25 1 .40624.59375.40624 1.4375 0 1.421877-1.14062 2.28125-1.125.859377-2.9375.859377-1.26562 0-2.25-.453127-.96875-.453123-1.53125-1.25-.54687-.8125-.54687-1.75h1.8125q.04687.90625.71874 1.4375.6875.53125 1.79688.53125 1.03125 0 1.64062-.40625.625-.421873.625-1.109373zm6.79688-2.09375-1.125 1.171873v3.71875h-1.8125v-14.999998h1.8125v9.078125l.96875-1.171877 3.28125-3.46875h2.20312l-4.10937 4.40625 4.59375 6.15625h-2.125zm9.5-8.234375v2.562498h1.98438v1.390627h-1.98438v6.546873q0 .640627.26562.96875.26563.3125.90626.3125.3125 0 .85937-.125v1.46875q-.71875.203127-1.39063.203127-1.20312 0-1.82812-.734377-.60938-.734373-.60938-2.09375v-6.546873h-1.92187v-1.390627h1.92187v-2.562498zm4.07812 7.749998q0-1.5625.60938-2.796873.60938-1.25 1.6875-1.921877 1.09375-.671873 2.5-.671873 2.15625 0 3.48438 1.5 1.34374 1.484373 1.34374 3.96875v.125q0 1.546873-.59374 2.78125-.59376 1.21875-1.70313 1.90625-1.09375.6875-2.51563.6875-2.14062 0-3.48437-1.5-1.32813-1.5-1.32813-3.953127zm1.8125.203127q0 1.765623.8125 2.828123.82813 1.0625 2.1875 1.0625 1.375 0 2.1875-1.078123.8125-1.078127.8125-3.015627 0-1.75-.82812-2.828123-.82812-1.078127-2.1875-1.078127-1.34375 0-2.17188 1.0625-.8125 1.0625-.8125 3.046877zm18.59376 0q0 2.421873-1.10938 3.90625-1.09375 1.46875-2.98438 1.46875-1.92187 0-3.03124-1.234377v5.09375h-1.79688v-14.625h1.64062l.09376 1.171877q1.09374-1.375 3.0625-1.375 1.90624 0 3.01562 1.4375 1.10938 1.4375 1.10938 4zm-1.8125-.203127q0-1.78125-.76563-2.8125-.75-1.046873-2.07813-1.046873-1.64062 0-2.46874 1.453123v5.0625q.8125 1.4375 2.48437 1.4375 1.29687 0 2.0625-1.03125.76563-1.03125.76563-3.0625z" fill="#757575"/><path d="m390 30.9c0-.552285.44772-1 1-1h10c.55228 0 1 .447715 1 1v10c0 .552286-.44772 1-1 1h-10c-.55228 0-1-.447714-1-1z" fill="#db4437"/><path d="m413.0625 32.3375.04688 1.171877q1.17187-1.375 3.14062-1.375 2.21875 0 3.01562 1.703123.53126-.765623 1.375-1.234373.84376-.46875 2-.46875 3.46876 0 3.53126 3.6875v7.078123h-1.8125v-6.96875q0-1.140623-.51563-1.703123-.51563-.5625-1.73437-.5625-1 0-1.67188.609373-.65625.59375-.76562 1.609377v7.015623h-1.8125v-6.921873q0-2.3125-2.26563-2.3125-1.78125 0-2.42187 1.515623v7.71875h-1.8125v-10.5625zm15.82812 5.1875q0-1.5625.60938-2.796873.60938-1.25 1.6875-1.921877 1.09375-.671873 2.5-.671873 2.15625 0 3.48438 1.5 1.34374 1.484373 1.34374 3.96875v.125q0 1.546873-.59374 2.78125-.59376 1.21875-1.70313 1.90625-1.09375.6875-2.51563.6875-2.14062 0-3.48437-1.5-1.32813-1.5-1.32813-3.953127zm1.8125.203127q0 1.765623.8125 2.828123.82813 1.0625 2.1875 1.0625 1.375 0 2.1875-1.078123.8125-1.078127.8125-3.015627 0-1.75-.82812-2.828123-.82812-1.078127-2.1875-1.078127-1.34375 0-2.17188 1.0625-.8125 1.0625-.8125 3.046877zm18.60938 0q0 2.421873-1.10938 3.90625-1.10937 1.46875-2.98437 1.46875-2.01563 0-3.10937-1.421877l-.07813 1.21875h-1.65625v-14.999998h1.79688v5.593748q1.09374-1.359373 3.01562-1.359373 1.92188 0 3.01562 1.453123 1.10938 1.453127 1.10938 3.984377zm-1.8125-.203127q0-1.84375-.71875-2.84375-.70313-1.015623-2.03125-1.015623-1.79688 0-2.57812 1.671873v4.5625q.82812 1.65625 2.59374 1.65625 1.29688 0 2.01563-1 .71875-1 .71875-3.03125zm5.82812 5.375h-1.79687v-10.5625h1.79687zm-1.95312-13.374998q0-.4375.26562-.734375.28126-.3125.79688-.3125.53125 0 .79688.3125.28124.296875.28124.734375 0 .4375-.28124.734375-.26563.296875-.79688.296875-.51562 0-.79688-.296875-.26562-.296875-.26562-.734375zm6.95312 13.374998h-1.79687v-14.999998h1.79687zm7.42188.203127q-2.14062 0-3.5-1.40625-1.34375-1.421877-1.34375-3.78125v-.34375q0-1.5625.59375-2.796877.60938-1.234373 1.6875-1.9375 1.07812-.703123 2.34375-.703123 2.0625 0 3.20313 1.359373 1.14062 1.359377 1.14062 3.890627v.75h-7.15625q.03125 1.5625.90625 2.53125.875.953123 2.21875.953123.96875 0 1.625-.390623.67187-.390627 1.17187-1.03125l1.09376.859373q-1.32813 2.046877-3.98438 2.046877zm-.21875-9.484377q-1.09375 0-1.84375.796877-.73438.796873-.90625 2.234373h5.28125v-.140623q-.07812-1.375-.75-2.125-.65625-.765627-1.78125-.765627z" fill="#757575"/></svg>